<svg xmlns="http://www.w3.org/2000/svg" viewBox="0 0 220.72 44.68"><title>logo</title><path d="M41.32,14.41h-1.8c-.89-3-1.45-4.69-2.79-6.59C32.72,2.57,28.36,1.9,25,1.9,14,1.9,8.93,12.28,8.93,21.66c0,13.18,8.83,19.67,17.09,19.67a18.61,18.61,0,0,0,15-8l1.46,1.11c-1.57,2.79-5.81,10.28-19.21,10.28C7.92,44.68,0,32.62,0,22.78,0,10.17,11.16,0,23.67,0a55.87,55.87,0,0,1,10,1.34,21.64,21.64,0,0,0,2.57.34c.9,0,1.34-.34,2.46-1.12h1.89Z" fill="#fff"/><path d="M73.69,0C58.61,0,48.57,10.84,48.57,22.34c0,11.27,9.93,22.34,25.23,22.34,15.53,0,25.79-10.84,25.79-22.22C99.59,9.17,87.31,0,73.69,0m.11,1.9c9.28,0,16.87,6.48,16.87,20.44,0,15.64-9.39,20.43-16.76,20.43C64,42.77,57.5,34.84,57.5,22.56,57.5,8.94,64.87,1.9,73.8,1.9" fill="#fff"/><path d="M138.75,43.67H103.34V41.78c4.59-.45,6.94-.91,6.94-7.38V10.17c0-6.37-2.46-6.82-6.94-7.26V1H124.9V2.91c-5.23.44-7,1.45-7,7.26V36.63c0,3.57,1.23,4.47,5.36,4.47h7.7c3.69,0,5.47-.9,6.81-3.46l2.47-5.81h2Z" fill="#fff"/><path d="M182.59,9.05h-2c-1.23-6.14-5.81-6.14-9.6-6.14H160.94V21.22h7.48c6.47,0,6.8-3.46,7-5.8h1.89V29.6h-1.89c-.11-2.47-.34-5.81-6.94-5.81H161V34.63c0,7.15.77,7.15,5.24,7.15h6.69c3.14,0,7.16-.35,9.71-6.37h2.13l-2.13,8.26H146.3V41.78c5.14-.45,7-1,7-7.38V10.17c0-6.14-2-6.82-7-7.26V1h35.63Z" fill="#fff"/><path d="M218.71,12.84h-1.79a13.86,13.86,0,0,0-2-6.58,10.08,10.08,0,0,0-8.49-4.36C201.51,1.9,199,5.15,199,8c0,3.7,2.12,4.92,11.27,10.28,6.92,4,10.5,8.6,10.5,14.07,0,5.8-4.91,12.29-14.07,12.29A14.15,14.15,0,0,1,201,43.44c-2.68-1.11-3-1.33-3.92-1.33a2,2,0,0,0-2,1.57h-1.9V29.94H195c.45,2.45,1.23,6.58,4.24,9.59a10.52,10.52,0,0,0,7.27,3.24c4,0,8.14-2.9,8.14-7.59s-4.23-7.48-8.37-9.82c-7.25-4.14-12.74-7.27-12.74-14.08C193.58,5.59,197.94,0,206,0c2.46,0,3.36.23,6.7,1.23a6.48,6.48,0,0,0,1.9.34,3.81,3.81,0,0,0,2.34-1h1.79V12.84Z" fill="#fff"/></svg>